<svg width="200" height="200" viewBox="0 0 200 200" fill="none" xmlns="http://www.w3.org/2000/svg">
<rect width="200" height="200" fill="#B4FA64"/>
<mask id="path-1-inside-1_2_4" fill="white">
<path d="M134.648 133.795C141.501 127.012 146.168 118.37 148.058 108.962C149.949 99.5538 148.979 89.8021 145.27 80.9399C141.561 72.0776 135.281 64.503 127.223 59.1737C119.165 53.8445 109.691 51 100 51C90.3087 51 80.8351 53.8445 72.7771 59.1737C64.7191 64.503 58.4386 72.0776 54.7299 80.9399C51.0212 89.8021 50.0508 99.5538 51.9415 108.962C53.8322 118.37 58.499 127.012 65.3518 133.795L86.9344 112.432C84.3502 109.875 82.5904 106.616 81.8774 103.068C81.1645 99.5203 81.5304 95.843 82.9289 92.5011C84.3274 89.1592 86.6958 86.3028 89.7344 84.2932C92.773 82.2836 96.3455 81.2109 100 81.2109C103.655 81.2109 107.227 82.2836 110.266 84.2932C113.304 86.3028 115.673 89.1592 117.071 92.5011C118.47 95.843 118.836 99.5203 118.123 103.068C117.41 106.616 115.65 109.875 113.066 112.432L134.648 133.795Z"/>
</mask>
<path d="M134.648 133.795C141.501 127.012 146.168 118.37 148.058 108.962C149.949 99.5538 148.979 89.8021 145.27 80.9399C141.561 72.0776 135.281 64.503 127.223 59.1737C119.165 53.8445 109.691 51 100 51C90.3087 51 80.8351 53.8445 72.7771 59.1737C64.7191 64.503 58.4386 72.0776 54.7299 80.9399C51.0212 89.8021 50.0508 99.5538 51.9415 108.962C53.8322 118.37 58.499 127.012 65.3518 133.795L86.9344 112.432C84.3502 109.875 82.5904 106.616 81.8774 103.068C81.1645 99.5203 81.5304 95.843 82.9289 92.5011C84.3274 89.1592 86.6958 86.3028 89.7344 84.2932C92.773 82.2836 96.3455 81.2109 100 81.2109C103.655 81.2109 107.227 82.2836 110.266 84.2932C113.304 86.3028 115.673 89.1592 117.071 92.5011C118.47 95.843 118.836 99.5203 118.123 103.068C117.41 106.616 115.65 109.875 113.066 112.432L134.648 133.795Z" stroke="black" stroke-width="20" mask="url(#path-1-inside-1_2_4)"/>
</svg>
